HIERARCHY
ROOT hip
{
	OFFSET 0.000000 0.000000 0.000000
	CHANNELS 6 Xposition Yposition Zposition Xrotation Zrotation Yrotation 
	JOINT abdomen
	{
		OFFSET 0.000000 3.422050 0.000000
		CHANNELS 3 Xrotation Zrotation Yrotation 
		JOINT chest
		{
			OFFSET 0.000000 8.486693 -0.684411
			CHANNELS 3 Xrotation Zrotation Yrotation 
			JOINT neck
			{
				OFFSET 0.000000 10.266162 -0.273764
				CHANNELS 3 Xrotation Zrotation Yrotation 
				JOINT head
				{
					OFFSET 0.000000 3.148285 0.000000
					CHANNELS 3 Xrotation Zrotation Yrotation 
					End Site
					{
						OFFSET 0.000000 3.148289 0.000000
					}
				}
			}
			JOINT lCollar
			{
				OFFSET 3.422053 6.707223 -0.821293
				CHANNELS 3 Yrotation Zrotation Xrotation 
				JOINT lShldr
				{
					OFFSET 3.285171 0.000000 0.000000
					CHANNELS 3 Zrotation Yrotation Xrotation 
					JOINT lForeArm
					{
						OFFSET 10.129278 0.000000 0.000000
						CHANNELS 3 Yrotation Zrotation Xrotation 
						JOINT lHand
						{
							OFFSET 8.486692 0.000000 0.000000
							CHANNELS 3 Zrotation Yrotation Xrotation 
							End Site
							{
								OFFSET 4.106464 0.000000 0.000000
							}
						}
					}
				}
			}
			JOINT rCollar
			{
				OFFSET -3.558935 6.707223 -0.821293
				CHANNELS 3 Yrotation Zrotation Xrotation 
				JOINT rShldr
				{
					OFFSET -3.148289 0.000000 0.000000
					CHANNELS 3 Zrotation Yrotation Xrotation 
					JOINT rForeArm
					{
						OFFSET -10.266159 0.000000 0.000000
						CHANNELS 3 Yrotation Zrotation Xrotation 
						JOINT rHand
						{
							OFFSET -8.349810 0.000000 0.000000
							CHANNELS 3 Zrotation Yrotation Xrotation 
							End Site
							{
								OFFSET -4.106464 0.000000 0.000000
							}
						}
					}
				}
			}
		}
	}
	JOINT lThigh
	{
		OFFSET 5.338403 -1.642589 1.368821
		CHANNELS 3 Xrotation Zrotation Yrotation 
		JOINT lShin
		{
			OFFSET -2.053232 -20.121670 0.000000
			CHANNELS 3 Xrotation Zrotation Yrotation 
			JOINT lFoot
			{
				OFFSET 0.000000 -19.300380 -1.231939
				CHANNELS 3 Xrotation Yrotation Zrotation 
				End Site
				{
					OFFSET 0.000000 -2.463878 4.653993
				}
			}
		}
	}
	JOINT rThigh
	{
		OFFSET -5.338403 -1.642589 1.368821
		CHANNELS 3 Xrotation Zrotation Yrotation 
		JOINT rShin
		{
			OFFSET 2.053232 -20.121670 0.000000
			CHANNELS 3 Xrotation Zrotation Yrotation 
			JOINT rFoot
			{
				OFFSET 0.000000 -19.300380 -1.231939
				CHANNELS 3 Xrotation Yrotation Zrotation 
				End Site
				{
					OFFSET 0.000000 -2.463878 4.653993
				}
			}
		}
	}
}
MOTION
Frames: 15
Frame Time: 0.049989
0.000000 43.528500 0.000000 0.000000 0.000000 0.000000 0.000000 0.000000 0.000000 0.000000 0.000000 0.000000 0.000000 0.000000 0.000000 0.000000 0.000000 0.000000 0.000000 0.000000 0.000000 0.000000 0.000000 0.000000 0.000000 0.000000 0.000000 0.000000 0.000000 0.000000 0.000000 0.000000 0.000000 0.000000 0.000000 0.000000 0.000000 0.000000 0.000000 0.000000 0.000000 0.000000 0.000000 0.000000 0.000000 0.000000 0.000000 0.000000 0.000000 0.000000 0.000000 0.000000 0.000000 0.000000 0.000000 0.000000 0.000000 0.000000 0.000000 0.000000 
0.000000 8.411781 0.000000 -7.001640 90.000000 0.000000 20.651936 0.233183 -0.001947 6.730107 0.814452 -0.594955 7.999141 0.000000 0.000000 10.000275 -13.000565 -0.002887 -23.332170 -33.032413 -7.592477 -20.329395 -40.458214 5.351603 -12.355579 -25.297012 10.728879 -7.000325 0.000000 0.000000 -5.396439 -1.018284 4.394304 82.609543 -24.485922 -2.182783 104.792374 0.077556 16.981030 -6.611860 6.770608 -14.231506 -54.927532 25.765841 35.702305 104.852379 -20.874126 -1.346347 18.331970 -7.715641 0.595339 -56.607540 -20.690577 -12.053754 71.800735 3.107412 0.088407 13.101685 -1.119841 -4.366170 
0.159659 8.397918 0.065389 -7.001640 90.000000 0.000000 21.496876 0.233304 -0.001864 6.268875 0.814371 -0.594930 8.345963 -0.207451 0.026667 10.002707 -13.279206 0.019691 -21.597698 -32.137135 -6.887401 -20.389980 -41.055477 5.286188 -15.129005 -27.561737 8.976547 -5.497506 1.066469 0.000723 -5.838216 -1.926625 5.203678 83.365723 -24.939737 -2.384041 105.367088 0.457925 16.990545 -6.707446 7.860815 -14.563786 -55.201981 25.907431 35.657993 105.472069 -20.766529 -1.574206 17.973787 -7.582936 0.503145 -56.991055 -20.742535 -11.965445 72.546768 3.041584 0.136702 12.744970 -1.155278 -4.342762 
0.319318 8.384055 0.130779 -7.001640 90.000000 0.000000 22.342321 0.233424 -0.001779 5.807561 0.814290 -0.594905 8.692874 -0.415167 0.052090 10.005027 -13.557917 0.042288 -19.888763 -31.222095 -6.219523 -20.450220 -41.652973 5.220994 -18.045559 -29.749674 7.059069 -3.989558 2.135620 0.029557 -6.267998 -2.842400 6.007694 84.126930 -25.391357 -2.592782 105.942017 0.838522 16.996246 -6.809817 8.951644 -14.899216 -55.476883 26.048828 35.612862 106.091042 -20.656609 -1.800710 17.615887 -7.449646 0.411808 -57.374813 -20.793941 -11.876724 73.293068 2.975102 0.184155 12.388226 -1.190863 -4.319572 
0.478978 8.370192 0.196168 -7.001641 90.000000 0.000000 23.188183 0.233542 -0.001693 5.346180 0.814209 -0.594879 9.039870 -0.623134 0.076268 10.007237 -13.836693 0.064906 -18.205141 -30.288696 -5.588645 -20.510141 -42.250687 5.156022 -21.112289 -31.846840 4.969934 -2.476193 3.206163 0.086751 -6.685739 -3.765168 6.806479 84.893204 -25.840633 -2.809063 106.517151 1.219282 16.998125 -6.919097 10.042834 -15.237993 -55.752258 26.190039 35.566917 106.709221 -20.544373 -2.025821 17.258276 -7.315781 0.321331 -57.758820 -20.844793 -11.787600 74.039536 2.907983 0.230752 12.031461 -1.226596 -4.296603 
0.638637 8.356329 0.261558 -7.001640 90.000000 0.000000 24.034367 0.233660 -0.001605 4.884748 0.814129 -0.594853 9.386962 -0.831341 0.099198 10.009336 -14.115529 0.087545 -16.546532 -29.338364 -4.994474 -20.569710 -42.848553 5.091260 -24.334597 -33.838924 2.704310 -0.957114 4.276785 0.172530 -7.091395 -4.694487 7.600165 85.664566 -26.287416 -3.032938 107.092537 1.600138 16.996187 -7.035425 11.134129 -15.580346 -56.028118 26.331059 35.520164 107.326599 -20.429855 -2.249500 16.900953 -7.181347 0.231717 -58.143066 -20.895090 -11.698072 74.786156 2.840244 0.276480 11.674681 -1.262473 -4.273855 
0.798296 8.342465 0.326947 -7.001640 90.000000 0.000000 24.880785 0.233776 -0.001515 4.423277 0.814049 -0.594826 9.734141 -1.039775 0.120876 10.011327 -14.394427 0.110206 -14.912539 -28.372494 -4.436632 -20.628946 -43.446552 5.026710 -26.967196 -36.121731 1.095902 0.567968 5.346162 0.287087 -7.484925 -5.629912 8.388899 86.441078 -26.731552 -3.264458 107.668129 1.981023 16.990414 -7.158945 12.225259 -15.926487 -56.304447 26.471878 35.472588 107.943108 -20.313068 -2.471715 16.543928 -7.046353 0.142971 -58.527550 -20.944830 -11.608155 75.532822 2.771900 0.321327 11.317893 -1.298493 -4.251329 
0.957955 8.328602 0.392337 -7.001640 90.000000 0.000000 25.727335 0.233891 -0.001423 3.961784 0.813968 -0.594798 10.081409 -1.248424 0.141300 10.013206 -14.673383 0.132891 -13.302708 -27.392490 -3.914667 -20.687843 -44.044655 4.962367 -29.766642 -38.344566 -0.697367 2.099339 6.412956 0.430586 -7.866294 -6.570995 9.172835 87.222801 -27.172909 -3.503676 108.243973 2.361873 16.980810 -7.289810 13.315960 -16.276644 -56.581242 26.612490 35.424194 108.558723 -20.194048 -2.692427 16.187208 -6.910810 0.055098 -58.912262 -20.994007 -11.517851 76.279495 2.702970 0.365281 10.961103 -1.334653 -4.229027 
1.117614 8.314739 0.457726 -7.001640 90.000000 0.000000 26.573938 0.234004 -0.001329 3.500284 0.813889 -0.594770 10.428773 -1.457274 0.160468 10.014974 -14.952386 0.155599 -11.716543 -26.399786 -3.428071 -20.746410 -44.642822 4.898228 -32.747581 -40.494274 -2.689801 3.637275 7.475825 0.603161 -8.235463 -7.517287 9.952133 88.009750 -27.611326 -3.750631 108.820068 2.742621 16.967369 -7.428184 14.405964 -16.631056 -56.858521 26.752897 35.374981 109.173378 -20.072802 -2.911599 15.830799 -6.774727 -0.031901 -59.297176 -21.042612 -11.427161 77.026093 2.633470 0.408332 10.604320 -1.370952 -4.206951 
1.277273 8.300876 0.523116 -7.001640 90.000000 0.000000 27.420488 0.234116 -0.001234 3.038792 0.813809 -0.594741 10.776222 -1.666312 0.178376 10.016629 -15.231445 0.178332 -10.153488 -25.395760 -2.976275 -20.804634 -45.241024 4.834286 -35.924236 -42.556698 -4.895313 5.182042 8.533422 0.804909 -8.592401 -8.468336 10.726966 88.801933 -28.046648 -4.005363 109.396454 3.123203 16.950092 -7.574241 15.495002 -16.989967 -57.136288 26.893089 35.324951 109.787033 -19.949362 -3.129198 15.474693 -6.638108 -0.118020 -59.682297 -21.090654 -11.336099 77.772568 2.563419 0.450469 10.247547 -1.407388 -4.185100 
1.436933 8.287012 0.588505 -7.001640 90.000000 0.000000 28.266911 0.234227 -0.001137 2.577321 0.813729 -0.594711 11.123768 -1.875527 0.195024 10.018173 -15.510546 0.201091 -8.612959 -24.381800 -2.558667 -20.862518 -45.839222 4.770539 -39.309605 -44.516830 -7.326599 6.733884 9.584405 1.035896 -8.937075 -9.423694 11.497510 89.599464 -28.478748 -4.267925 109.973106 3.503550 16.928986 -7.728165 16.582804 -17.353628 -57.414524 27.033056 35.274090 110.399658 -19.823746 -3.345194 15.118909 -6.500967 -0.203256 -60.067616 -21.138117 -11.244661 78.518875 2.492835 0.491682 9.890795 -1.443957 -4.163477 
1.596592 8.273149 0.653895 -7.001640 90.000000 0.000000 29.113098 0.234336 -0.001039 2.115888 0.813650 -0.594681 11.471405 -2.084904 0.210408 10.019604 -15.789688 0.223877 -7.094340 -23.359276 -2.174598 -20.920063 -46.437389 4.706982 -41.955933 -46.747940 -8.963046 8.293034 10.627439 1.296147 -9.269449 -10.382904 12.263952 90.402283 -28.907454 -4.538332 110.550011 3.883593 16.904026 -7.890150 17.669092 -17.722301 -57.693237 27.172802 35.222412 111.011215 -19.695988 -3.559550 14.763447 -6.363310 -0.287606 -60.453110 -21.185005 -11.152864 79.264900 2.421735 0.531959 9.534065 -1.480659 -4.142083 
1.756251 8.259286 0.719284 -7.001640 90.000000 0.000000 29.958956 0.234443 -0.000939 1.654508 0.813571 -0.594650 11.819137 -2.294431 0.224527 10.020919 -16.068871 0.246690 -5.596992 -22.329527 -1.823387 -20.977255 -47.035450 4.643608 -44.816639 -48.924362 -10.827880 9.859694 11.661193 1.585648 -9.589498 -11.345528 13.026488 91.210464 -29.332626 -4.816627 111.127243 4.263274 16.875233 -8.060409 18.753607 -18.096266 -57.972439 27.312317 35.169903 111.621651 -19.566113 -3.772234 14.408312 -6.225147 -0.371067 -60.838806 -21.231318 -11.060706 80.010635 2.350140 0.571293 9.177371 -1.517491 -4.120920 
1.915910 8.245423 0.784674 -7.001640 90.000000 0.000000 30.804399 0.234549 -0.000838 1.193195 0.813493 -0.594618 12.166960 -2.504097 0.237378 10.022121 -16.348087 0.269532 -4.120267 -21.293875 -1.504329 -21.034109 -47.633423 4.580413 -47.918602 -51.032818 -12.947829 11.434035 12.684357 1.904345 -9.897182 -12.311106 13.785316 92.024033 -29.754124 -5.102833 111.704758 4.642519 16.842598 -8.239152 19.836058 -18.475790 -58.252110 27.451586 35.116566 112.230949 -19.434145 -3.983220 14.053503 -6.086485 -0.453635 -61.224636 -21.277037 -10.968191 80.755989 2.278066 0.609675 8.820713 -1.554450 -4.099987 
2.075569 8.231560 0.850063 -7.001640 90.000000 0.000000 31.649349 0.234654 -0.000735 0.731964 0.813415 -0.594586 12.514877 -2.713886 0.248959 10.023208 -16.627333 0.292403 -2.663503 -20.253611 -1.216699 -21.090614 -48.231251 4.517396 -51.290417 -53.058380 -15.351354 13.016212 13.695642 2.252139 -10.192468 -13.279197 14.540642 92.842987 -30.171783 -5.396969 112.282593 5.021269 16.806128 -8.426616 20.916178 -18.861176 -58.532249 27.590611 35.062389 112.839027 -19.300102 -4.192471 13.699033 -5.947337 -0.535307 -61.610622 -21.322172 -10.875335 81.500916 2.205534 0.647096 8.464102 -1.591534 -4.079286 
